<svg width="996" height="339" viewBox="0 0 996 339" fill="none" xmlns="http://www.w3.org/2000/svg">
<path d="M232.142 86.6266C229.836 70.3703 220.485 57.7504 204.086 48.7671C187.688 39.7838 167.573 35.2927 143.745 35.2927C126.321 35.2927 111.075 37.6455 98.0072 42.3512C85.0678 47.0568 74.9467 53.5267 67.6442 61.7609C60.4698 69.9963 56.8827 79.3536 56.8827 89.834C56.8827 98.604 59.3809 106.144 64.3772 112.454C69.5018 118.656 76.0356 123.844 83.9787 128.015C91.9218 132.078 100.249 135.447 108.961 138.121C117.673 140.687 125.679 142.773 132.982 144.376L172.953 153.36C183.204 155.606 194.605 158.708 207.16 162.664C219.844 166.622 231.951 172.023 243.481 178.867C255.139 185.604 264.748 194.267 272.306 204.854C279.866 215.443 283.645 228.436 283.645 243.837C283.645 261.589 278.071 277.632 266.926 291.962C255.908 306.292 239.765 317.682 218.499 326.131C197.359 334.58 171.673 338.805 141.437 338.805C113.253 338.805 88.8471 335.008 68.2208 327.415C47.7225 319.822 31.5802 309.234 19.7937 295.651C8.13534 282.069 1.53748 266.295 0 248.328H49.1958C50.477 260.734 55.4735 271 64.1851 279.129C73.025 287.15 84.171 293.139 97.6228 297.096C111.203 300.945 125.808 302.87 141.437 302.87C159.63 302.87 175.964 300.411 190.442 295.492C204.919 290.465 216.384 283.513 224.839 274.637C233.295 265.653 237.523 255.173 237.523 243.194C237.523 232.286 233.872 223.409 226.57 216.566C219.267 209.72 209.659 204.159 197.744 199.881C185.83 195.604 172.953 191.86 159.118 188.652L110.69 177.102C79.9432 169.723 55.6015 159.188 37.6656 145.499C19.7295 131.811 10.7616 113.898 10.7616 91.7601C10.7616 73.3643 16.7189 57.3226 28.6335 43.6336C40.6762 29.838 56.8185 19.1433 77.0607 11.5502C97.4307 3.85007 120.171 0 145.281 0C170.647 0 193.195 3.79661 212.925 11.3897C232.655 18.876 248.285 29.1428 259.814 42.1905C271.473 55.237 277.623 70.049 278.263 86.6266H232.142ZM409.66 4.49179V333.029H362.002V4.49179H409.66ZM505.217 333.029V4.49179H638.199C668.947 4.49179 694.186 8.87655 713.916 17.6461C733.645 26.3082 748.249 38.2328 757.73 53.42C767.21 68.606 771.95 85.8775 771.95 105.234C771.95 124.592 767.21 141.756 757.73 156.729C748.249 171.702 733.708 183.466 714.107 192.021C694.506 200.47 669.46 204.695 638.969 204.695H531.353V168.76H637.431C658.441 168.76 675.352 166.194 688.164 161.061C701.104 155.927 710.455 148.654 716.222 139.243C722.114 129.725 725.06 118.389 725.06 105.234C725.06 92.0801 722.114 80.5834 716.222 70.7442C710.328 60.9051 700.911 53.3121 687.972 47.9653C675.032 42.5105 657.929 39.7838 636.662 39.7838H552.876V333.029H505.217ZM690.47 185.445L787.325 333.029H731.98L636.662 185.445H690.47Z" fill="white"/>
<path d="M826.325 0L819.569 25H816.325L823.08 0L826.325 0Z" fill="white"/>
<path d="M844.787 8.05427C844.712 7.48111 844.412 7.03618 843.885 6.71942C843.358 6.4027 842.711 6.24434 841.945 6.24434C841.385 6.24434 840.895 6.32728 840.475 6.49321C840.059 6.65909 839.734 6.88722 839.499 7.17758C839.268 7.46793 839.153 7.79787 839.153 8.16739C839.153 8.47658 839.233 8.74242 839.394 8.96492C839.559 9.18361 839.769 9.3665 840.024 9.51355C840.279 9.65682 840.547 9.7756 840.827 9.86989C841.107 9.96035 841.364 10.0339 841.599 10.0905L842.884 10.4072C843.213 10.4864 843.58 10.5957 843.983 10.7353C844.391 10.8748 844.78 11.0652 845.151 11.3065C845.526 11.5441 845.835 11.8495 846.078 12.223C846.32 12.5961 846.442 13.0544 846.442 13.5971C846.442 14.2231 846.263 14.7889 845.905 15.2942C845.55 15.7995 845.031 16.2009 844.348 16.4987C843.669 16.7966 842.843 16.9455 841.871 16.9455C840.965 16.9455 840.18 16.8117 839.517 16.5441C838.858 16.2761 838.34 15.903 837.961 15.424C837.586 14.9454 837.374 14.3891 837.325 13.7556H838.906C838.947 14.1928 839.108 14.5552 839.388 14.8415C839.672 15.1242 840.03 15.3356 840.463 15.475C840.899 15.6108 841.368 15.6789 841.871 15.6789C842.456 15.6789 842.981 15.5921 843.446 15.4184C843.912 15.2413 844.28 14.9964 844.552 14.6834C844.824 14.3664 844.96 13.9969 844.96 13.5744C844.96 13.1902 844.842 12.8772 844.607 12.6359C844.373 12.3942 844.064 12.1983 843.681 12.0474C843.298 11.8965 842.884 11.7647 842.439 11.6516L840.883 11.2443C839.894 10.9841 839.112 10.6127 838.535 10.1301C837.959 9.64742 837.67 9.01581 837.67 8.23528C837.67 7.58671 837.862 7.02109 838.245 6.53844C838.632 6.05201 839.151 5.67493 839.802 5.40723C840.456 5.13574 841.187 5 841.994 5C842.81 5 843.535 5.13383 844.169 5.40157C844.803 5.66553 845.305 6.02753 845.676 6.48755C846.051 6.94758 846.249 7.46981 846.269 8.05427H844.787ZM848.763 16.742V8.05427H850.172V9.41173H850.295C850.493 8.94792 850.812 8.58784 851.252 8.3314C851.693 8.07123 852.222 7.94114 852.84 7.94114C853.466 7.94114 853.987 8.07123 854.403 8.3314C854.823 8.58784 855.15 8.94792 855.385 9.41173H855.484C855.727 8.96301 856.091 8.60667 856.577 8.34271C857.063 8.07501 857.646 7.94114 858.325 7.94114C859.174 7.94114 859.868 8.18436 860.407 8.67078C860.946 9.15343 861.216 9.90568 861.216 10.9276V16.742H859.758V10.9276C859.758 10.2865 859.567 9.82839 859.184 9.55313C858.801 9.27786 858.35 9.14025 857.831 9.14025C857.164 9.14025 856.647 9.32501 856.281 9.69452C855.914 10.0603 855.731 10.5241 855.731 11.086V16.742H854.249V10.7918C854.249 10.2979 854.073 9.90003 853.723 9.5984C853.373 9.29295 852.922 9.14025 852.37 9.14025C851.992 9.14025 851.638 9.23263 851.308 9.41739C850.983 9.60214 850.719 9.85858 850.517 10.1866C850.32 10.5109 850.221 10.8861 850.221 11.3122V16.742H848.763ZM866.674 16.9455C866.072 16.9455 865.527 16.842 865.037 16.6345C864.547 16.4235 864.158 16.1201 863.869 15.7239C863.581 15.3241 863.437 14.8415 863.437 14.276C863.437 13.7783 863.544 13.3749 863.758 13.0655C863.972 12.7526 864.258 12.5077 864.617 12.3301C864.975 12.1529 865.37 12.0211 865.803 11.9343C866.239 11.8439 866.678 11.7722 867.119 11.7193C867.695 11.6516 868.162 11.6006 868.521 11.5668C868.883 11.529 869.147 11.4668 869.311 11.3801C869.48 11.2933 869.565 11.1425 869.565 10.9276V10.8823C869.565 10.3243 869.398 9.89063 869.064 9.5814C868.735 9.2722 868.235 9.11763 867.564 9.11763C866.867 9.11763 866.322 9.25715 865.926 9.53616C865.531 9.81521 865.253 10.1131 865.093 10.4298L863.709 9.97736C863.956 9.44944 864.285 9.03843 864.697 8.74433C865.113 8.44644 865.566 8.23903 866.056 8.12216C866.55 8.00147 867.036 7.94114 867.514 7.94114C867.819 7.94114 868.169 7.9751 868.564 8.04296C868.963 8.10706 869.349 8.24094 869.719 8.44453C870.094 8.64817 870.405 8.95549 870.652 9.3665C870.899 9.77751 871.023 10.328 871.023 11.0181V16.742H869.565V15.5654H869.49C869.392 15.7541 869.227 15.956 868.996 16.1706C868.766 16.3856 868.459 16.5684 868.076 16.7193C867.693 16.8702 867.226 16.9455 866.674 16.9455ZM866.896 15.7466C867.473 15.7466 867.959 15.643 868.354 15.4356C868.753 15.2281 869.054 14.9605 869.256 14.6324C869.462 14.3043 869.565 13.9591 869.565 13.5971V12.3755C869.503 12.4436 869.367 12.5057 869.157 12.5622C868.951 12.6148 868.712 12.6622 868.441 12.7036C868.173 12.7414 867.911 12.7753 867.656 12.8055C867.405 12.8318 867.201 12.8545 867.044 12.8732C866.666 12.9186 866.312 12.9919 865.982 13.0938C865.657 13.1918 865.393 13.3407 865.191 13.5406C864.993 13.7369 864.895 14.0045 864.895 14.3437C864.895 14.8076 865.082 15.1584 865.457 15.3957C865.836 15.6295 866.315 15.7466 866.896 15.7466ZM873.683 16.742V8.05427H875.092V9.3665H875.191C875.363 8.93661 875.677 8.58784 876.13 8.3201C876.582 8.0524 877.093 7.91852 877.661 7.91852C877.769 7.91852 877.902 7.9204 878.063 7.92418C878.224 7.92796 878.345 7.93361 878.428 7.94114V9.2986C878.378 9.2873 878.265 9.27033 878.088 9.24772C877.915 9.22132 877.731 9.2081 877.538 9.2081C877.077 9.2081 876.665 9.29673 876.302 9.47397C875.944 9.64742 875.66 9.88872 875.45 10.1979C875.244 10.5034 875.141 10.8521 875.141 11.2443V16.742H873.683ZM884.876 8.05427V9.18548H879.959V8.05427H884.876ZM881.392 5.97281H882.85V14.2533C882.85 14.6304 882.91 14.9131 883.029 15.1019C883.153 15.2866 883.309 15.4109 883.499 15.475C883.693 15.5355 883.896 15.5654 884.11 15.5654C884.271 15.5654 884.403 15.5582 884.506 15.5431C884.609 15.524 884.691 15.5088 884.753 15.4977L885.049 16.6966C884.951 16.7309 884.813 16.7647 884.635 16.7986C884.458 16.8364 884.234 16.8551 883.962 16.8551C883.55 16.8551 883.147 16.7739 882.751 16.6118C882.36 16.4497 882.035 16.2029 881.776 15.8708C881.52 15.5391 881.392 15.1206 881.392 14.6153V5.97281ZM893.691 5.15836V16.742H892.159V5.15836H893.691ZM898.023 11.5158V16.742H896.565V8.05427H897.974V9.41173H898.097C898.32 8.97058 898.657 8.61611 899.11 8.34841C899.563 8.07688 900.148 7.94114 900.864 7.94114C901.507 7.94114 902.069 8.06183 902.551 8.30313C903.033 8.54069 903.408 8.90269 903.675 9.38911C903.943 9.87176 904.077 10.4826 904.077 11.2217V16.742H902.619V11.3122C902.619 10.6297 902.425 10.098 902.038 9.71718C901.651 9.33253 901.12 9.14025 900.444 9.14025C899.979 9.14025 899.563 9.23263 899.197 9.41739C898.834 9.60214 898.548 9.87176 898.338 10.2262C898.128 10.5807 898.023 11.0105 898.023 11.5158ZM914.159 8.05427L910.651 16.742H909.168L905.66 8.05427H907.241L909.86 14.9773H909.959L912.578 8.05427H914.159ZM919.722 16.9232C918.808 16.9232 918.019 16.7384 917.356 16.3685C916.697 15.9954 916.188 15.475 915.83 14.8076C915.476 14.1363 915.299 13.3558 915.299 12.4659C915.299 11.5763 915.476 10.7918 915.83 10.1131C916.188 9.43061 916.687 8.8989 917.325 8.51808C917.968 8.13347 918.717 7.94114 919.574 7.94114C920.068 7.94114 920.556 8.01656 921.038 8.16739C921.52 8.31822 921.958 8.56331 922.353 8.90269C922.749 9.23828 923.064 9.68322 923.299 10.2375C923.533 10.7918 923.65 11.4743 923.65 12.2851V12.8505H916.337V11.697H922.168C922.168 11.2066 922.061 10.7692 921.847 10.3846C921.637 9.99998 921.336 9.69643 920.945 9.47397C920.558 9.25146 920.101 9.14025 919.574 9.14025C918.993 9.14025 918.491 9.2722 918.066 9.53616C917.646 9.79634 917.323 10.1357 917.096 10.5543C916.87 10.9728 916.757 11.4215 916.757 11.9004V12.6697C916.757 13.3256 916.88 13.8818 917.127 14.3382C917.379 14.7905 917.727 15.1357 918.171 15.373C918.616 15.6072 919.133 15.7239 919.722 15.7239C920.105 15.7239 920.451 15.6749 920.76 15.5769C921.073 15.475 921.342 15.3241 921.569 15.1246C921.795 14.9207 921.971 14.6683 922.094 14.3664L923.502 14.7284C923.354 15.166 923.105 15.5506 922.755 15.8823C922.405 16.2104 921.972 16.4669 921.458 16.6516C920.943 16.8324 920.364 16.9232 919.722 16.9232ZM932.589 9.99997L931.279 10.3394C931.197 10.1395 931.076 9.9453 930.915 9.75676C930.758 9.56443 930.545 9.40608 930.273 9.28164C930.001 9.15721 929.653 9.09501 929.229 9.09501C928.648 9.09501 928.164 9.21754 927.777 9.46266C927.394 9.70396 927.202 10.0113 927.202 10.3846C927.202 10.7164 927.334 10.9785 927.598 11.1708C927.861 11.3631 928.273 11.5233 928.833 11.6516L930.242 11.9681C931.09 12.1569 931.722 12.4452 932.138 12.8338C932.554 13.2185 932.762 13.7142 932.762 14.321C932.762 14.8188 932.605 15.2639 932.292 15.6562C931.984 16.0484 931.551 16.3574 930.995 16.5835C930.439 16.8097 929.793 16.9232 929.056 16.9232C928.088 16.9232 927.287 16.7309 926.653 16.3462C926.018 15.9616 925.617 15.3997 925.448 14.6607L926.832 14.3437C926.964 14.8116 927.213 15.162 927.579 15.3957C927.95 15.6295 928.434 15.7466 929.031 15.7466C929.71 15.7466 930.25 15.6147 930.649 15.3507C931.053 15.0828 931.255 14.7622 931.255 14.3891C931.255 14.0873 931.139 13.8348 930.909 13.6314C930.678 13.4239 930.324 13.269 929.846 13.1675L928.265 12.8278C927.396 12.6395 926.758 12.3472 926.35 11.9514C925.947 11.5516 925.745 11.052 925.745 10.4524C925.745 9.96227 925.895 9.52864 926.196 9.15155C926.5 8.77447 926.914 8.47849 927.437 8.26355C927.964 8.04861 928.561 7.94114 929.229 7.94114C930.167 7.94114 930.905 8.12968 931.44 8.50677C931.98 8.88385 932.362 9.38159 932.589 9.99997ZM939.083 8.05427V9.18548H934.166V8.05427H939.083ZM935.599 5.97281H937.057V14.2533C937.057 14.6304 937.116 14.9131 937.236 15.1019C937.359 15.2866 937.516 15.4109 937.705 15.475C937.899 15.5355 938.103 15.5654 938.317 15.5654C938.477 15.5654 938.609 15.5582 938.712 15.5431C938.815 15.524 938.898 15.5088 938.959 15.4977L939.255 16.6966C939.157 16.7309 939.019 16.7647 938.842 16.7986C938.665 16.8364 938.44 16.8551 938.168 16.8551C937.757 16.8551 937.353 16.7739 936.958 16.6118C936.567 16.4497 936.241 16.2029 935.982 15.8708C935.726 15.5391 935.599 15.1206 935.599 14.6153V5.97281ZM946.366 16.742V5.15836H950.64C951.628 5.15836 952.44 5.31294 953.074 5.62217C953.708 5.92758 954.178 6.34803 954.483 6.88347C954.787 7.41892 954.94 8.02787 954.94 8.71036C954.94 9.3929 954.787 9.99806 954.483 10.526C954.178 11.0539 953.71 11.4687 953.08 11.7702C952.45 12.0681 951.645 12.217 950.665 12.217H947.206V10.9502H950.616C951.291 10.9502 951.835 10.8597 952.246 10.6787C952.662 10.4977 952.963 10.2413 953.148 9.90946C953.338 9.57387 953.432 9.17417 953.432 8.71036C953.432 8.24659 953.338 7.84123 953.148 7.49433C952.959 7.14743 952.656 6.87969 952.24 6.69115C951.824 6.49886 951.275 6.4027 950.591 6.4027H947.898V16.742H946.366ZM952.32 11.5384L955.434 16.742H953.655L950.591 11.5384H952.32ZM961.171 16.9232C960.256 16.9232 959.468 16.7384 958.805 16.3685C958.146 15.9954 957.638 15.475 957.279 14.8076C956.925 14.1363 956.748 13.3558 956.748 12.4659C956.748 11.5763 956.925 10.7918 957.279 10.1131C957.638 9.43061 958.135 8.8989 958.774 8.51808C959.417 8.13347 960.166 7.94114 961.023 7.94114C961.517 7.94114 962.005 8.01656 962.486 8.16739C962.968 8.31822 963.407 8.56331 963.802 8.90269C964.198 9.23828 964.512 9.68322 964.747 10.2375C964.982 10.7918 965.1 11.4743 965.1 12.2851V12.8505H957.786V11.697H963.617C963.617 11.2066 963.51 10.7692 963.296 10.3846C963.086 9.99998 962.785 9.69643 962.394 9.47397C962.007 9.25146 961.55 9.14025 961.023 9.14025C960.442 9.14025 959.939 9.2722 959.515 9.53616C959.095 9.79634 958.772 10.1357 958.546 10.5543C958.319 10.9728 958.206 11.4215 958.206 11.9004V12.6697C958.206 13.3256 958.329 13.8818 958.576 14.3382C958.827 14.7905 959.176 15.1357 959.62 15.373C960.065 15.6072 960.582 15.7239 961.171 15.7239C961.554 15.7239 961.9 15.6749 962.209 15.5769C962.522 15.475 962.791 15.3241 963.018 15.1246C963.244 14.9207 963.419 14.6683 963.543 14.3664L964.951 14.7284C964.803 15.166 964.554 15.5506 964.204 15.8823C963.854 16.2104 963.421 16.4669 962.907 16.6516C962.392 16.8324 961.813 16.9232 961.171 16.9232ZM970.109 16.9455C969.508 16.9455 968.962 16.842 968.472 16.6345C967.982 16.4235 967.593 16.1201 967.305 15.7239C967.016 15.3241 966.872 14.8415 966.872 14.276C966.872 13.7783 966.98 13.3749 967.193 13.0655C967.408 12.7526 967.694 12.5077 968.052 12.3301C968.41 12.1529 968.806 12.0211 969.238 11.9343C969.675 11.8439 970.113 11.7722 970.554 11.7193C971.13 11.6516 971.598 11.6006 971.956 11.5668C972.318 11.529 972.582 11.4668 972.747 11.3801C972.916 11.2933 973 11.1425 973 10.9276V10.8823C973 10.3243 972.833 9.89063 972.5 9.5814C972.17 9.2722 971.67 9.11763 970.999 9.11763C970.303 9.11763 969.757 9.25715 969.362 9.53616C968.966 9.81521 968.689 10.1131 968.528 10.4298L967.144 9.97736C967.391 9.44944 967.721 9.03843 968.132 8.74433C968.549 8.44644 969.001 8.23903 969.491 8.12216C969.986 8.00147 970.472 7.94114 970.949 7.94114C971.254 7.94114 971.604 7.9751 971.999 8.04296C972.399 8.10706 972.784 8.24094 973.154 8.44453C973.529 8.64817 973.84 8.95549 974.087 9.3665C974.335 9.77751 974.458 10.328 974.458 11.0181V16.742H973V15.5654H972.926C972.827 15.7541 972.662 15.956 972.432 16.1706C972.201 16.3856 971.894 16.5684 971.511 16.7193C971.128 16.8702 970.661 16.9455 970.109 16.9455ZM970.332 15.7466C970.908 15.7466 971.394 15.643 971.789 15.4356C972.189 15.2281 972.489 14.9605 972.691 14.6324C972.897 14.3043 973 13.9591 973 13.5971V12.3755C972.938 12.4436 972.802 12.5057 972.592 12.5622C972.386 12.6148 972.148 12.6622 971.876 12.7036C971.608 12.7414 971.347 12.7753 971.091 12.8055C970.84 12.8318 970.636 12.8545 970.48 12.8732C970.101 12.9186 969.747 12.9919 969.417 13.0938C969.092 13.1918 968.829 13.3407 968.627 13.5406C968.429 13.7369 968.33 14.0045 968.33 14.3437C968.33 14.8076 968.518 15.1584 968.892 15.3957C969.271 15.6295 969.751 15.7466 970.332 15.7466ZM978.577 5.15836V16.742H977.119V5.15836H978.577ZM985.373 8.05427V9.18548H980.456V8.05427H985.373ZM981.889 5.97281H983.347V14.2533C983.347 14.6304 983.406 14.9131 983.526 15.1019C983.65 15.2866 983.806 15.4109 983.995 15.475C984.189 15.5355 984.393 15.5654 984.607 15.5654C984.768 15.5654 984.899 15.5582 985.002 15.5431C985.105 15.524 985.188 15.5088 985.249 15.4977L985.546 16.6966C985.447 16.7309 985.309 16.7647 985.132 16.7986C984.955 16.8364 984.731 16.8551 984.459 16.8551C984.047 16.8551 983.643 16.7739 983.248 16.6118C982.857 16.4497 982.531 16.2029 982.272 15.8708C982.017 15.5391 981.889 15.1206 981.889 14.6153V5.97281ZM988.505 20C988.258 20 988.037 19.9809 987.844 19.9435C987.65 19.9096 987.516 19.8754 987.443 19.8415L987.813 18.6653C988.167 18.7481 988.48 18.7784 988.752 18.7557C989.024 18.733 989.265 18.6219 989.475 18.422C989.689 18.2257 989.884 17.9071 990.061 17.4659L990.333 16.7874L986.825 8.05427H988.406L991.025 14.9773H991.124L993.743 8.05427H995.325L991.297 18.0091C991.116 18.4578 990.891 18.8289 990.624 19.1232C990.356 19.421 990.045 19.6416 989.691 19.785C989.341 19.9283 988.945 20 988.505 20Z" fill="white"/>
</svg>
