<svg width="180" height="25" viewBox="0 0 180 25" fill="none" xmlns="http://www.w3.org/2000/svg">
<path d="M10.3246 0L3.56921 25H0.324585L7.07996 0L10.3246 0Z" fill="white"/>
<path d="M28.7866 8.05427C28.7122 7.48111 28.4117 7.03618 27.8846 6.71942C27.3576 6.4027 26.7109 6.24434 25.9451 6.24434C25.385 6.24434 24.8949 6.32728 24.4748 6.49321C24.0591 6.65909 23.7338 6.88722 23.499 7.17758C23.268 7.46793 23.1528 7.79787 23.1528 8.16739C23.1528 8.47658 23.2332 8.74242 23.3937 8.96492C23.5585 9.18361 23.7686 9.3665 24.0238 9.51355C24.2791 9.65682 24.547 9.7756 24.8271 9.86989C25.1071 9.96035 25.3641 10.0339 25.5989 10.0905L26.884 10.4072C27.2132 10.4864 27.5798 10.5957 27.9834 10.7353C28.3913 10.8748 28.7805 11.0652 29.151 11.3065C29.5259 11.5441 29.8346 11.8495 30.0777 12.223C30.3204 12.5961 30.4421 13.0544 30.4421 13.5971C30.4421 14.2231 30.263 14.7889 29.9046 15.2942C29.5502 15.7995 29.0314 16.2009 28.3478 16.4987C27.6685 16.7966 26.8427 16.9455 25.8707 16.9455C24.9649 16.9455 24.1804 16.8117 23.5172 16.5441C22.8584 16.2761 22.3396 15.903 21.9608 15.424C21.5859 14.9454 21.3737 14.3891 21.3246 13.7556H22.9058C22.9471 14.1928 23.1076 14.5552 23.3876 14.8415C23.6716 15.1242 24.0299 15.3356 24.4626 15.475C24.8988 15.6108 25.3685 15.6789 25.8707 15.6789C26.4556 15.6789 26.9805 15.5921 27.4459 15.4184C27.9116 15.2413 28.28 14.9964 28.5518 14.6834C28.8236 14.3664 28.9597 13.9969 28.9597 13.5744C28.9597 13.1902 28.8422 12.8772 28.6074 12.6359C28.3726 12.3942 28.0638 12.1983 27.6807 12.0474C27.298 11.8965 26.884 11.7647 26.4391 11.6516L24.8827 11.2443C23.8943 10.9841 23.1119 10.6127 22.5353 10.1301C21.9586 9.64742 21.6703 9.01581 21.6703 8.23528C21.6703 7.58671 21.8621 7.02109 22.2448 6.53844C22.6318 6.05201 23.151 5.67493 23.8016 5.40723C24.4561 5.13574 25.1871 5 25.9942 5C26.8096 5 27.5346 5.13383 28.1686 5.40157C28.8031 5.66553 29.3054 6.02753 29.6759 6.48755C30.0507 6.94758 30.2486 7.4698 30.2691 8.05427H28.7866ZM32.7631 16.742V8.05427H34.1716V9.41173H34.2951C34.4926 8.94792 34.8117 8.58784 35.2523 8.3314C35.6932 8.07123 36.2225 7.94114 36.84 7.94114C37.4658 7.94114 37.9868 8.07123 38.4029 8.3314C38.823 8.58784 39.15 8.94792 39.3849 9.41173H39.484C39.7267 8.96301 40.0911 8.60667 40.5773 8.34271C41.063 8.07501 41.6458 7.94114 42.3255 7.94114C43.1735 7.94114 43.8676 8.18436 44.4072 8.67078C44.9465 9.15343 45.2161 9.90568 45.2161 10.9276V16.742H43.7584V10.9276C43.7584 10.2865 43.5671 9.82839 43.1839 9.55313C42.8008 9.27786 42.3498 9.14025 41.831 9.14025C41.1639 9.14025 40.6473 9.32501 40.2807 9.69452C39.9141 10.0603 39.731 10.5241 39.731 11.086V16.742H38.2486V10.7918C38.2486 10.2979 38.0733 9.90003 37.7232 9.5984C37.3732 9.29295 36.9222 9.14025 36.3703 9.14025C35.9915 9.14025 35.6376 9.23263 35.3079 9.41739C34.9826 9.60215 34.7191 9.85858 34.5173 10.1866C34.3199 10.5109 34.2207 10.8861 34.2207 11.3122V16.742H32.7631ZM50.6738 16.9455C50.0723 16.9455 49.527 16.842 49.0369 16.6345C48.5468 16.4235 48.1576 16.1201 47.8693 15.7239C47.5809 15.3241 47.437 14.8415 47.437 14.276C47.437 13.7783 47.544 13.3749 47.7584 13.0655C47.9723 12.7526 48.2585 12.5077 48.6168 12.3301C48.9751 12.1529 49.3704 12.0211 49.8027 11.9343C50.2393 11.8439 50.6781 11.7722 51.1186 11.7193C51.6953 11.6516 52.1623 11.6006 52.5207 11.5668C52.8833 11.529 53.1469 11.4668 53.3113 11.3801C53.4804 11.2933 53.5648 11.1425 53.5648 10.9276V10.8823C53.5648 10.3243 53.3978 9.89063 53.0643 9.5814C52.7351 9.2722 52.2345 9.11763 51.5635 9.11763C50.8673 9.11763 50.3215 9.25715 49.9262 9.53616C49.5309 9.81521 49.253 10.1131 49.0926 10.4298L47.7088 9.97736C47.9558 9.44944 48.2854 9.03843 48.6973 8.74433C49.113 8.44644 49.5661 8.23903 50.0562 8.12216C50.5503 8.00147 51.036 7.94114 51.5139 7.94114C51.8188 7.94114 52.1689 7.9751 52.5642 8.04296C52.9634 8.10706 53.3487 8.24094 53.7192 8.44453C54.0941 8.64817 54.405 8.95549 54.652 9.3665C54.899 9.77751 55.0225 10.328 55.0225 11.0181V16.742H53.5648V15.5654H53.4904C53.3917 15.7541 53.2269 15.956 52.9964 16.1706C52.766 16.3856 52.4589 16.5684 52.0762 16.7193C51.6931 16.8702 51.2256 16.9455 50.6738 16.9455ZM50.896 15.7466C51.4726 15.7466 51.9588 15.643 52.3541 15.4356C52.7533 15.2281 53.0543 14.9605 53.256 14.6324C53.4617 14.3043 53.5648 13.9591 53.5648 13.5971V12.3755C53.503 12.4436 53.3669 12.5057 53.1569 12.5622C52.9512 12.6148 52.7125 12.6622 52.4407 12.7036C52.1728 12.7414 51.9114 12.7753 51.6561 12.8055C51.4048 12.8318 51.2008 12.8545 51.0443 12.8732C50.6655 12.9186 50.3115 12.9919 49.9819 13.0938C49.6566 13.1918 49.3931 13.3407 49.1913 13.5406C48.9934 13.7369 48.8947 14.0045 48.8947 14.3437C48.8947 14.8076 49.0821 15.1584 49.457 15.3957C49.8358 15.6295 50.3154 15.7466 50.896 15.7466ZM57.6835 16.742V8.05427H59.0916V9.3665H59.1908C59.3634 8.93661 59.6765 8.58784 60.1296 8.3201C60.5823 8.0524 61.0933 7.91852 61.6613 7.91852C61.7687 7.91852 61.9022 7.9204 62.0631 7.92418C62.2236 7.92796 62.3449 7.93361 62.4275 7.94114V9.2986C62.3779 9.2873 62.2649 9.27033 62.0879 9.24772C61.9148 9.22132 61.7313 9.2081 61.5378 9.2081C61.0768 9.2081 60.665 9.29673 60.3023 9.47397C59.9444 9.64742 59.66 9.88872 59.4499 10.1979C59.2442 10.5034 59.1412 10.8521 59.1412 11.2443V16.742H57.6835ZM68.8763 8.05427V9.18548H63.9592V8.05427H68.8763ZM65.3925 5.97281H66.8502V14.2533C66.8502 14.6304 66.9102 14.9131 67.0294 15.1019C67.1529 15.2866 67.3094 15.4109 67.499 15.475C67.6926 15.5355 67.8965 15.5654 68.1104 15.5654C68.2709 15.5654 68.4027 15.5582 68.5058 15.5431C68.6088 15.524 68.691 15.5088 68.7528 15.4977L69.0494 16.6966C68.9506 16.7309 68.8128 16.7647 68.6353 16.7986C68.4584 16.8364 68.234 16.8551 67.9622 16.8551C67.5503 16.8551 67.1468 16.7739 66.7515 16.6118C66.3601 16.4498 66.0348 16.2029 65.7756 15.8708C65.5204 15.5391 65.3925 15.1206 65.3925 14.6153V5.97281ZM77.6911 5.15836V16.742H76.1591V5.15836H77.6911ZM82.0229 11.5158V16.742H80.5652V8.05427H81.9738V9.41173H82.0973C82.3195 8.97058 82.657 8.61611 83.1101 8.34841C83.5632 8.07688 84.1481 7.94114 84.8644 7.94114C85.5071 7.94114 86.069 8.06183 86.5508 8.30313C87.0327 8.54069 87.4075 8.90269 87.675 9.38911C87.9429 9.87176 88.0768 10.4826 88.0768 11.2217V16.742H86.6187V11.3122C86.6187 10.6297 86.4252 10.098 86.0381 9.71718C85.6511 9.33253 85.1197 9.14025 84.4443 9.14025C83.979 9.14025 83.5633 9.23263 83.1967 9.41739C82.8344 9.60215 82.5483 9.87176 82.3382 10.2262C82.1282 10.5807 82.0229 11.0105 82.0229 11.5158ZM98.1593 8.05427L94.6508 16.742H93.1683L89.6598 8.05427H91.2409L93.8602 14.9773H93.9589L96.5782 8.05427H98.1593ZM103.722 16.9232C102.808 16.9232 102.019 16.7384 101.356 16.3685C100.697 15.9954 100.188 15.475 99.8301 14.8076C99.4761 14.1363 99.2992 13.3558 99.2992 12.4659C99.2992 11.5763 99.4761 10.7918 99.8301 10.1131C100.188 9.43061 100.687 8.8989 101.325 8.51808C101.968 8.13347 102.717 7.94114 103.574 7.94114C104.068 7.94114 104.556 8.01656 105.038 8.16739C105.52 8.31822 105.958 8.56331 106.353 8.90269C106.749 9.23828 107.064 9.68322 107.299 10.2375C107.533 10.7918 107.65 11.4743 107.65 12.2851V12.8505H100.337V11.697H106.168C106.168 11.2066 106.061 10.7692 105.847 10.3846C105.637 9.99998 105.336 9.69643 104.945 9.47397C104.558 9.25146 104.101 9.14025 103.574 9.14025C102.993 9.14025 102.491 9.2722 102.066 9.53616C101.646 9.79634 101.323 10.1357 101.096 10.5543C100.87 10.9728 100.757 11.4215 100.757 11.9004V12.6697C100.757 13.3256 100.88 13.8818 101.127 14.3382C101.379 14.7905 101.727 15.1357 102.171 15.373C102.616 15.6072 103.133 15.7239 103.722 15.7239C104.105 15.7239 104.451 15.6749 104.76 15.5769C105.073 15.475 105.342 15.3241 105.569 15.1246C105.795 14.9207 105.971 14.6683 106.094 14.3664L107.502 14.7284C107.354 15.166 107.105 15.5506 106.755 15.8823C106.405 16.2104 105.972 16.4669 105.458 16.6516C104.943 16.8324 104.364 16.9232 103.722 16.9232ZM116.589 9.99997L115.279 10.3394C115.197 10.1395 115.076 9.9453 114.915 9.75676C114.758 9.56443 114.545 9.40608 114.273 9.28164C114.001 9.15721 113.653 9.09501 113.229 9.09501C112.648 9.09501 112.164 9.21754 111.777 9.46266C111.394 9.70396 111.202 10.0113 111.202 10.3846C111.202 10.7164 111.334 10.9785 111.598 11.1708C111.861 11.3631 112.273 11.5233 112.833 11.6516L114.242 11.9681C115.09 12.1569 115.722 12.4452 116.138 12.8338C116.554 13.2185 116.762 13.7142 116.762 14.321C116.762 14.8188 116.605 15.2639 116.292 15.6562C115.984 16.0484 115.551 16.3574 114.995 16.5835C114.439 16.8097 113.793 16.9232 113.056 16.9232C112.088 16.9232 111.287 16.7309 110.653 16.3462C110.018 15.9616 109.617 15.3997 109.448 14.6607L110.832 14.3437C110.964 14.8116 111.213 15.162 111.579 15.3957C111.95 15.6295 112.434 15.7466 113.031 15.7466C113.71 15.7466 114.25 15.6147 114.649 15.3507C115.053 15.0828 115.255 14.7622 115.255 14.3891C115.255 14.0873 115.139 13.8348 114.909 13.6314C114.678 13.4239 114.324 13.269 113.846 13.1675L112.265 12.8278C111.396 12.6395 110.758 12.3472 110.35 11.9514C109.947 11.5516 109.745 11.052 109.745 10.4524C109.745 9.96227 109.895 9.52864 110.196 9.15155C110.5 8.77447 110.914 8.47849 111.437 8.26355C111.964 8.04861 112.561 7.94114 113.229 7.94114C114.167 7.94114 114.905 8.12968 115.44 8.50677C115.98 8.88385 116.362 9.38159 116.589 9.99997ZM123.083 8.05427V9.18548H118.166V8.05427H123.083ZM119.599 5.97281H121.057V14.2533C121.057 14.6304 121.116 14.9131 121.236 15.1019C121.359 15.2866 121.516 15.4109 121.705 15.475C121.899 15.5355 122.103 15.5654 122.317 15.5654C122.477 15.5654 122.609 15.5582 122.712 15.5431C122.815 15.524 122.898 15.5088 122.959 15.4977L123.255 16.6966C123.157 16.7309 123.019 16.7647 122.842 16.7986C122.665 16.8364 122.44 16.8551 122.168 16.8551C121.757 16.8551 121.353 16.7739 120.958 16.6118C120.567 16.4498 120.241 16.2029 119.982 15.8708C119.726 15.5391 119.599 15.1206 119.599 14.6153V5.97281ZM130.366 16.742V5.15836H134.64C135.628 5.15836 136.44 5.31294 137.074 5.62217C137.708 5.92758 138.178 6.34803 138.483 6.88347C138.787 7.41892 138.94 8.02787 138.94 8.71036C138.94 9.3929 138.787 9.99806 138.483 10.526C138.178 11.0539 137.71 11.4687 137.08 11.7702C136.45 12.0681 135.645 12.217 134.665 12.217H131.206V10.9502H134.616C135.291 10.9502 135.835 10.8597 136.246 10.6787C136.662 10.4977 136.963 10.2413 137.148 9.90946C137.338 9.57387 137.432 9.17417 137.432 8.71036C137.432 8.24659 137.338 7.84123 137.148 7.49433C136.959 7.14743 136.656 6.87969 136.24 6.69115C135.824 6.49886 135.275 6.4027 134.591 6.4027H131.898V16.742H130.366ZM136.32 11.5384L139.434 16.742H137.655L134.591 11.5384H136.32ZM145.171 16.9232C144.256 16.9232 143.468 16.7384 142.805 16.3685C142.146 15.9954 141.638 15.475 141.279 14.8076C140.925 14.1363 140.748 13.3558 140.748 12.4659C140.748 11.5763 140.925 10.7918 141.279 10.1131C141.638 9.43061 142.135 8.8989 142.774 8.51808C143.417 8.13347 144.166 7.94114 145.023 7.94114C145.517 7.94114 146.005 8.01656 146.486 8.16739C146.968 8.31822 147.407 8.56331 147.802 8.90269C148.198 9.23828 148.512 9.68322 148.747 10.2375C148.982 10.7918 149.1 11.4743 149.1 12.2851V12.8505H141.786V11.697H147.617C147.617 11.2066 147.51 10.7692 147.296 10.3846C147.086 9.99998 146.785 9.69643 146.394 9.47397C146.007 9.25146 145.55 9.14025 145.023 9.14025C144.442 9.14025 143.939 9.2722 143.515 9.53616C143.095 9.79634 142.772 10.1357 142.546 10.5543C142.319 10.9728 142.206 11.4215 142.206 11.9004V12.6697C142.206 13.3256 142.329 13.8818 142.576 14.3382C142.827 14.7905 143.176 15.1357 143.62 15.373C144.065 15.6072 144.582 15.7239 145.171 15.7239C145.554 15.7239 145.9 15.6749 146.209 15.5769C146.522 15.475 146.791 15.3241 147.018 15.1246C147.244 14.9207 147.419 14.6683 147.543 14.3664L148.951 14.7284C148.803 15.166 148.554 15.5506 148.204 15.8823C147.854 16.2104 147.421 16.4669 146.907 16.6516C146.392 16.8324 145.813 16.9232 145.171 16.9232ZM154.109 16.9455C153.508 16.9455 152.962 16.842 152.472 16.6345C151.982 16.4235 151.593 16.1201 151.305 15.7239C151.016 15.3241 150.872 14.8415 150.872 14.276C150.872 13.7783 150.98 13.3749 151.193 13.0655C151.408 12.7526 151.694 12.5077 152.052 12.3301C152.41 12.1529 152.806 12.0211 153.238 11.9343C153.675 11.8439 154.113 11.7722 154.554 11.7193C155.13 11.6516 155.598 11.6006 155.956 11.5668C156.318 11.529 156.582 11.4668 156.747 11.3801C156.916 11.2933 157 11.1425 157 10.9276V10.8823C157 10.3243 156.833 9.89063 156.5 9.5814C156.17 9.2722 155.67 9.11763 154.999 9.11763C154.303 9.11763 153.757 9.25715 153.362 9.53616C152.966 9.81521 152.689 10.1131 152.528 10.4298L151.144 9.97736C151.391 9.44944 151.721 9.03843 152.132 8.74433C152.549 8.44644 153.001 8.23903 153.491 8.12216C153.986 8.00147 154.472 7.94114 154.949 7.94114C155.254 7.94114 155.604 7.9751 155.999 8.04296C156.399 8.10706 156.784 8.24094 157.154 8.44453C157.529 8.64817 157.84 8.95549 158.087 9.3665C158.335 9.77751 158.458 10.328 158.458 11.0181V16.742H157V15.5654H156.926C156.827 15.7541 156.662 15.956 156.432 16.1706C156.201 16.3856 155.894 16.5684 155.511 16.7193C155.128 16.8702 154.661 16.9455 154.109 16.9455ZM154.332 15.7466C154.908 15.7466 155.394 15.643 155.789 15.4356C156.189 15.2281 156.489 14.9605 156.691 14.6324C156.897 14.3043 157 13.9591 157 13.5971V12.3755C156.938 12.4436 156.802 12.5057 156.592 12.5622C156.386 12.6148 156.148 12.6622 155.876 12.7036C155.608 12.7414 155.347 12.7753 155.091 12.8055C154.84 12.8318 154.636 12.8545 154.48 12.8732C154.101 12.9186 153.747 12.9919 153.417 13.0938C153.092 13.1918 152.829 13.3407 152.627 13.5406C152.429 13.7369 152.33 14.0045 152.33 14.3437C152.33 14.8076 152.518 15.1584 152.892 15.3957C153.271 15.6295 153.751 15.7466 154.332 15.7466ZM162.577 5.15836V16.742H161.119V5.15836H162.577ZM169.373 8.05427V9.18548H164.456V8.05427H169.373ZM165.889 5.97281H167.347V14.2533C167.347 14.6304 167.406 14.9131 167.526 15.1019C167.65 15.2866 167.806 15.4109 167.995 15.475C168.189 15.5355 168.393 15.5654 168.607 15.5654C168.768 15.5654 168.899 15.5582 169.002 15.5431C169.105 15.524 169.188 15.5088 169.249 15.4977L169.546 16.6966C169.447 16.7309 169.309 16.7647 169.132 16.7986C168.955 16.8364 168.731 16.8551 168.459 16.8551C168.047 16.8551 167.643 16.7739 167.248 16.6118C166.857 16.4498 166.531 16.2029 166.272 15.8708C166.017 15.5391 165.889 15.1206 165.889 14.6153V5.97281ZM172.505 20C172.258 20 172.037 19.9809 171.844 19.9435C171.65 19.9096 171.516 19.8754 171.443 19.8415L171.813 18.6653C172.167 18.7481 172.48 18.7784 172.752 18.7557C173.024 18.733 173.265 18.6219 173.475 18.422C173.689 18.2257 173.884 17.9071 174.061 17.4659L174.333 16.7874L170.825 8.05427H172.406L175.025 14.9773H175.124L177.743 8.05427H179.325L175.297 18.0091C175.116 18.4578 174.891 18.8289 174.624 19.1232C174.356 19.421 174.045 19.6416 173.691 19.785C173.341 19.9283 172.945 20 172.505 20Z" fill="white"/>
</svg>
