<svg width="16" height="16" viewBox="0 0 16 16" fill="none" xmlns="http://www.w3.org/2000/svg">
<path d="M14.3159 15.131L14.3159 0.867438L15.131 0.867438L15.131 15.131L14.3159 15.131Z" fill="#FF0006"/>
<path fill-rule="evenodd" clip-rule="evenodd" d="M13.4485 15.9984L13.4485 -3.8147e-06L15.9984 -3.92616e-06L15.9984 15.9984L13.4485 15.9984ZM14.3159 0.867434L14.3159 15.131L15.131 15.131L15.131 0.867433L14.3159 0.867434Z" fill="#FF0006"/>
<path d="M1.54114 13.981L14.2304 1.29167L14.7734 1.8346L2.08406 14.5239L1.54114 13.981Z" fill="#FF0006"/>
<path fill-rule="evenodd" clip-rule="evenodd" d="M0.314331 13.981L14.2304 0.0649297L16 1.8346L2.084 15.7506L0.314331 13.981ZM14.2304 1.29167L1.54107 13.981L2.084 14.5239L14.7733 1.8346L14.2304 1.29167Z" fill="#FF0006"/>
<path d="M0.867432 0.867432L15.131 0.867432L15.131 1.68249L0.867432 1.68249L0.867432 0.867432Z" fill="#FF0006"/>
<path fill-rule="evenodd" clip-rule="evenodd" d="M0 0L15.9984 0L15.9984 2.54993L0 2.54993L0 0ZM15.131 0.867437L0.867437 0.867437L0.867437 1.6825L15.131 1.6825L15.131 0.867437Z" fill="#FF0006"/>
</svg>
