<svg width="48" height="24" viewBox="0 0 48 24" fill="none" xmlns="http://www.w3.org/2000/svg">
<path fill-rule="evenodd" clip-rule="evenodd" d="M23.9111 7.24658L13.1486 0L0.170721 9.9298C0.0630325 10.0122 0 10.1392 0 10.2737V23.9275H34.789L47.9999 23.9275V12.7803C47.9999 12.6147 47.9047 12.4635 47.7544 12.3902L31.7064 4.56797L23.9111 7.24658Z" fill="white"/>
<path fill-rule="evenodd" clip-rule="evenodd" d="M13.1486 0L23.9111 7.24658L31.7064 4.56797L47.7544 12.3902C47.9047 12.4635 47.9999 12.6147 47.9999 12.7803V23.9275L38.9725 23.9275L36.7209 19.9831C37.5561 19.628 38.201 19.1142 38.6557 18.4416C39.1112 17.7632 39.339 16.9391 39.339 15.9692C39.339 15.013 39.1161 14.1866 38.6704 13.49C38.2246 12.7888 37.5903 12.2515 36.7674 11.8781C35.9493 11.5002 34.977 11.3112 33.8504 11.3112H27.6343V23.9275H25.1736V11.3775H21.5366V23.9275H18.2754C18.7505 23.2946 19.0766 22.3079 19.0815 21.4246C19.0766 20.8646 18.9738 20.3592 18.7729 19.9084C18.5721 19.4576 18.2758 19.0592 17.8839 18.7132C17.4969 18.3671 17.0169 18.0689 16.4438 17.8185C15.8755 17.568 15.2192 17.3677 14.4746 17.2174L13.1814 16.9442C12.8385 16.8759 12.53 16.7962 12.2556 16.7052C11.9813 16.6141 11.7462 16.5094 11.5503 16.391C11.3592 16.2681 11.2123 16.1269 11.1094 15.9676C11.0115 15.8082 10.9674 15.6238 10.9772 15.4143C10.9821 15.1593 11.0629 14.934 11.2196 14.7382C11.3764 14.5378 11.6115 14.3807 11.925 14.2669C12.2385 14.1531 12.6304 14.0962 13.1006 14.0962C13.8109 14.0962 14.357 14.2373 14.7391 14.5196C15.1261 14.7974 15.3441 15.1867 15.3931 15.6875H18.8758C18.866 14.8179 18.6235 14.0529 18.1484 13.3927C17.6733 12.7325 17.0046 12.2202 16.1425 11.856C15.2853 11.4871 14.2738 11.3027 13.108 11.3027C11.9666 11.3027 10.9502 11.4849 10.0587 11.8491C9.16721 12.2134 8.46919 12.7211 7.96466 13.3722C7.46012 14.0233 7.2103 14.7814 7.2152 15.6465C7.2103 16.7075 7.58258 17.5498 8.33203 18.1736C9.08149 18.7929 10.1077 19.2413 11.4107 19.5191L12.9831 19.8606C13.5317 19.979 13.9823 20.1087 14.335 20.2499C14.6926 20.3865 14.9571 20.5504 15.1285 20.7416C15.3 20.9283 15.3882 21.1537 15.3931 21.4178C15.3882 21.7001 15.2926 21.9505 15.1065 22.1691C14.9204 22.3877 14.6534 22.5584 14.3056 22.6813C13.9627 22.8043 13.5464 22.8657 13.0565 22.8657C12.5226 22.8657 12.0524 22.7883 11.6458 22.6335C11.2441 22.4787 10.9282 22.2511 10.698 21.9505C10.4677 21.65 10.3379 21.2744 10.3085 20.8236H6.82578C6.84048 21.9164 7.10744 22.8202 7.62667 23.5351C7.77651 23.7414 7.86485 23.8613 7.91472 23.9275H0V10.2737C0 10.1392 0.0630325 10.0122 0.170721 9.9298L13.1486 0ZM7.91472 23.9275C8.03764 24.0907 7.9267 23.9275 7.9267 23.9275H12.9909H16.0735H18.2753C18.2753 23.9275 18.2753 23.9275 18.2754 23.9275H7.91472ZM21.5366 23.9275V23.9275H25.1736V23.9275H21.5366ZM31.2714 23.9275V23.9275H27.6343V23.9275H31.2714ZM31.2714 23.9275V20.5111H33.106L35.0092 23.9275H34.789H31.2714ZM35.0092 23.9275L38.9725 23.9275L38.9726 23.9275H35.0093L35.0092 23.9275ZM31.2714 17.8474H33.0642C33.6128 17.8474 34.0708 17.7814 34.4382 17.6494C34.8104 17.5128 35.0921 17.3079 35.2831 17.0347C35.4742 16.7569 35.5697 16.4018 35.5697 15.9692C35.5697 15.5367 35.4742 15.1792 35.2831 14.8969C35.0921 14.6101 34.8104 14.3961 34.4382 14.2549C34.0659 14.1092 33.6079 14.0364 33.0642 14.0364H31.2714V17.8474Z" fill="#FF0000"/>
</svg>
