<svg width="788" height="339" viewBox="0 0 788 339" fill="none" xmlns="http://www.w3.org/2000/svg">
<path d="M232.142 86.6266C229.836 70.3703 220.485 57.7504 204.086 48.7671C187.688 39.7838 167.573 35.2927 143.745 35.2927C126.321 35.2927 111.075 37.6455 98.0072 42.3512C85.0678 47.0568 74.9467 53.5267 67.6442 61.7609C60.4698 69.9963 56.8827 79.3536 56.8827 89.834C56.8827 98.604 59.3809 106.144 64.3772 112.454C69.5018 118.656 76.0356 123.844 83.9787 128.015C91.9218 132.078 100.249 135.447 108.961 138.121C117.673 140.687 125.679 142.773 132.982 144.376L172.953 153.36C183.204 155.606 194.605 158.708 207.16 162.664C219.844 166.622 231.951 172.023 243.481 178.867C255.139 185.604 264.748 194.267 272.306 204.854C279.866 215.443 283.645 228.436 283.645 243.837C283.645 261.589 278.071 277.632 266.926 291.962C255.908 306.292 239.765 317.682 218.499 326.131C197.359 334.58 171.673 338.805 141.437 338.805C113.253 338.805 88.8471 335.008 68.2208 327.415C47.7225 319.822 31.5802 309.234 19.7937 295.651C8.13534 282.069 1.53748 266.295 0 248.328H49.1958C50.477 260.734 55.4735 271 64.1851 279.129C73.025 287.15 84.171 293.139 97.6228 297.096C111.203 300.945 125.808 302.87 141.437 302.87C159.63 302.87 175.964 300.411 190.442 295.492C204.919 290.465 216.384 283.513 224.839 274.637C233.295 265.653 237.523 255.173 237.523 243.194C237.523 232.286 233.872 223.409 226.57 216.566C219.267 209.72 209.659 204.159 197.744 199.881C185.83 195.604 172.953 191.86 159.118 188.652L110.69 177.102C79.9432 169.723 55.6015 159.188 37.6656 145.499C19.7295 131.811 10.7616 113.898 10.7616 91.7601C10.7616 73.3643 16.7189 57.3226 28.6335 43.6336C40.6762 29.838 56.8185 19.1433 77.0607 11.5502C97.4307 3.85007 120.171 0 145.281 0C170.647 0 193.195 3.79661 212.925 11.3897C232.655 18.876 248.285 29.1428 259.814 42.1905C271.473 55.237 277.623 70.049 278.263 86.6266H232.142ZM409.66 4.49179V333.029H362.002V4.49179H409.66ZM505.217 333.029V4.49179H638.199C668.947 4.49179 694.186 8.87655 713.916 17.6461C733.645 26.3082 748.249 38.2328 757.73 53.42C767.21 68.606 771.95 85.8775 771.95 105.234C771.95 124.592 767.21 141.756 757.73 156.729C748.249 171.702 733.708 183.466 714.107 192.021C694.506 200.47 669.46 204.695 638.969 204.695H531.353V168.76H637.431C658.441 168.76 675.352 166.194 688.164 161.061C701.104 155.927 710.455 148.654 716.222 139.243C722.114 129.725 725.06 118.389 725.06 105.234C725.06 92.0801 722.114 80.5834 716.222 70.7442C710.328 60.9051 700.911 53.3121 687.972 47.9653C675.032 42.5105 657.929 39.7838 636.662 39.7838H552.876V333.029H505.217ZM690.47 185.445L787.325 333.029H731.98L636.662 185.445H690.47Z" fill="white"/>
</svg>
